<?xml version="1.0" encoding="UTF-8"?>
<svg width="40px" height="40px" viewBox="0 0 40 40" version="1.1" xmlns="http://www.w3.org/2000/svg" xmlns:xlink="http://www.w3.org/1999/xlink">
    <!-- Generator: Sketch 48.2 (47327) - http://www.bohemiancoding.com/sketch -->
    <title>005-instagram</title>
    <desc>Created with Sketch.</desc>
    <defs></defs>
    <g id="Desktop-Copy-3" stroke="none" stroke-width="1" fill="none" fill-rule="evenodd" transform="translate(-101.000000, -3710.000000)">
        <g id="005-instagram" transform="translate(101.000000, 3710.000000)" fill="#BEBEBE" fill-rule="nonzero">
            <path d="M25.8911111,10.6133333 L14.0013333,10.6133333 C12.1035556,10.6133333 10.5595556,12.1573333 10.5595556,14.0551111 L10.5595556,25.9448889 C10.5595556,27.8426667 12.1035556,29.3871111 14.0013333,29.3871111 L25.8911111,29.3871111 C27.7888889,29.3871111 29.3333333,27.8431111 29.3333333,25.9448889 L29.3333333,14.0551111 C29.3333333,12.1573333 27.7893333,10.6133333 25.8911111,10.6133333 Z M19.9462222,26.1804444 C16.5386667,26.1804444 13.7662222,23.408 13.7662222,20 C13.7662222,16.5924444 16.5386667,13.82 19.9462222,13.82 C23.3542222,13.82 26.1266667,16.5924444 26.1266667,20 C26.1266667,23.4075556 23.3537778,26.1804444 19.9462222,26.1804444 Z M26.3253333,15.0977778 C25.5186667,15.0977778 24.8626667,14.4417778 24.8626667,13.6355556 C24.8626667,12.8293333 25.5186667,12.1733333 26.3253333,12.1733333 C27.1315556,12.1733333 27.7875556,12.8293333 27.7875556,13.6355556 C27.7875556,14.4417778 27.1315556,15.0977778 26.3253333,15.0977778 Z" id="Shape"></path>
            <path d="M19.9462222,16.4315556 C17.9791111,16.4315556 16.3773333,18.0324444 16.3773333,19.9995556 C16.3773333,21.9675556 17.9791111,23.5688889 19.9462222,23.5688889 C21.9142222,23.5688889 23.5146667,21.9675556 23.5146667,19.9995556 C23.5146667,18.0328889 21.9137778,16.4315556 19.9462222,16.4315556 Z" id="Shape"></path>
            <path d="M19.9462222,0 C8.93066667,0 0,8.93066667 0,19.9462222 C0,30.9617778 8.93066667,39.8924444 19.9462222,39.8924444 C30.9617778,39.8924444 39.8924444,30.9617778 39.8924444,19.9462222 C39.8924444,8.93066667 30.9617778,0 19.9462222,0 Z M31.9444444,25.9448889 C31.9444444,29.2831111 29.2293333,31.9982222 25.8911111,31.9982222 L14.0013333,31.9982222 C10.6635556,31.9982222 7.948,29.2831111 7.948,25.9448889 L7.948,14.0551111 C7.948,10.7173333 10.6635556,8.00177778 14.0013333,8.00177778 L25.8911111,8.00177778 C29.2293333,8.00177778 31.9444444,10.7173333 31.9444444,14.0551111 L31.9444444,25.9448889 Z" id="Shape"></path>
        </g>
    </g>
</svg>