<?xml version="1.0" encoding="UTF-8"?>
<svg width="57px" height="49px" viewBox="0 0 57 49" version="1.1" xmlns="http://www.w3.org/2000/svg" xmlns:xlink="http://www.w3.org/1999/xlink">
    <!-- Generator: Sketch 48.2 (47327) - http://www.bohemiancoding.com/sketch -->
    <title>” copy 2</title>
    <desc>Created with Sketch.</desc>
    <defs></defs>
    <g id="Desktop-Copy-3" stroke="none" stroke-width="1" fill="none" fill-rule="evenodd" transform="translate(-1000.000000, -2948.000000)">
        <path d="M1001.66181,2948 L1024.76093,2948 L1024.76093,2964.16835 C1024.76093,2973.9574 1023.07145,2981.24408 1019.69242,2986.02862 C1016.31339,2990.81316 1011.24493,2994.47025 1004.48688,2997 L1000,2987.59596 C1008.53065,2984.84623 1012.79592,2979.18186 1012.79592,2970.60269 L1001.66181,2970.60269 L1001.66181,2948 Z M1034.23324,2948 L1057,2948 L1057,2964.16835 C1057,2974.28737 1055.22742,2981.73903 1051.68222,2986.52357 C1048.13701,2991.3081 1043.15164,2994.80021 1036.72595,2997 L1032.40525,2987.59596 C1041.04669,2984.84623 1045.36735,2979.18186 1045.36735,2970.60269 L1034.23324,2970.60269 L1034.23324,2948 Z" id="”-copy-2" fill="#F5F5F5"></path>
    </g>
</svg>