<?xml version="1.0" encoding="UTF-8"?>
<svg width="67px" height="58px" viewBox="0 0 67 58" version="1.1" xmlns="http://www.w3.org/2000/svg" xmlns:xlink="http://www.w3.org/1999/xlink">
    <!-- Generator: Sketch 49.3 (51167) - http://www.bohemiancoding.com/sketch -->
    <title>” copy 3</title>
    <desc>Created with Sketch.</desc>
    <defs></defs>
    <g id="Page-1" stroke="none" stroke-width="1" fill="none" fill-rule="evenodd" opacity="0.131623641">
        <g id="Desktop-Copy-3" transform="translate(-510.000000, -2564.000000)" fill="#000000">
            <path d="M511.953353,2564 L539.104956,2564 L539.104956,2583.13805 C539.104956,2594.72509 537.119067,2603.35014 533.14723,2609.01347 C529.175393,2614.6768 523.217727,2619.0056 515.274052,2622 L510,2610.86869 C520.027261,2607.6139 525.040816,2600.90914 525.040816,2590.75421 L511.953353,2590.75421 L511.953353,2564 Z M550.239067,2564 L577,2564 L577,2583.13805 C577,2595.11566 574.916445,2603.936 570.749271,2609.59933 C566.582098,2615.26265 560.722098,2619.39617 553.169096,2622 L548.090379,2610.86869 C558.247864,2607.6139 563.326531,2600.90914 563.326531,2590.75421 L550.239067,2590.75421 L550.239067,2564 Z" id="”-copy-3"></path>
        </g>
    </g>
</svg>