<svg id="Layer_1" data-name="Layer 1" xmlns="http://www.w3.org/2000/svg" viewBox="0 0 342 342"><title>logo5</title><path d="M22.8,245.23q0-4.87-5.71-4.88H9.62V250h7.54Q22.8,250,22.8,245.23Z"/><path d="M110.71,241.42a11.4,11.4,0,0,0-9,3.69q-3.28,3.7-3.28,10.1,0,6.25,3.28,10a12.6,12.6,0,0,0,17.9,0q3.27-3.73,3.28-10,0-6.4-3.24-10.1A11.28,11.28,0,0,0,110.71,241.42Z"/><path d="M0,0V228.4H20.67q8.15,0,12.76,3.58T38,242.34a12.71,12.71,0,0,1-2.51,8,11.55,11.55,0,0,1-6.63,4.23,13.07,13.07,0,0,1,10.36,13q0,7-4.65,10.86t-13.33,3.85H0V342H342V0ZM79,282.33H47.18V228.4h15V271H79Zm55.46-12.88a26.11,26.11,0,0,1-9.94,9.87,28.83,28.83,0,0,1-27.69,0,26,26,0,0,1-10-9.87,29.58,29.58,0,0,1,0-28.49,26,26,0,0,1,10-9.86,29,29,0,0,1,27.77,0,25.84,25.84,0,0,1,9.9,9.86,29.71,29.71,0,0,1,0,28.49Zm27.12-4.27a9.82,9.82,0,0,0,8,3.73,11.13,11.13,0,0,0,6.32-1.83,10.71,10.71,0,0,0,4-5h15.77a24.89,24.89,0,0,1-8.65,15q-6.82,5.6-17.26,5.6a27.37,27.37,0,0,1-14-3.47,23.45,23.45,0,0,1-9.22-9.71,33,33,0,0,1,0-28.49,23.46,23.46,0,0,1,9.22-9.71,27.37,27.37,0,0,1,14-3.47,28.87,28.87,0,0,1,12.38,2.55,22.77,22.77,0,0,1,8.88,7.24,27,27,0,0,1,4.65,10.85H180a10.5,10.5,0,0,0-4-5,11.31,11.31,0,0,0-6.32-1.79,9.87,9.87,0,0,0-8,3.69q-3,3.7-3,9.87T161.6,265.19Zm91.88,17.14H235.43l-17-23.84v23.84h-15V228.4h15v23.31l17.14-23.31h17.9l-20.87,26.36Zm37.34-17.14v17.14H275.89V265.19l-19-36.8H274L283.51,249,293,228.4h16.91Z"/><path d="M9.62,270.3h8.46q5.87,0,5.87-4.88,0-5-5.87-5H9.62Z"/></svg>