<svg id="Layer_1" data-name="Layer 1" xmlns="http://www.w3.org/2000/svg" viewBox="0 0 704.9 87.79"><title>logo3</title><path d="M60.62,50a21,21,0,0,1,4.7,13.61q0,10.87-7.26,17.15T37,87.05H0V.86H36.26q13.06,0,20.09,5.74t7,16.12q0,8.06-4.21,13.19a19.57,19.57,0,0,1-11,6.71A20.93,20.93,0,0,1,60.62,50ZM17.22,37H32.72q6.47,0,9.83-2.87t3.36-8.24q0-5.37-3.3-8.3T32.48,14.65H17.22ZM44.08,70q3.66-3,3.66-8.73T44,52.44q-3.73-3.11-10.56-3.11H17.22V73H33.58Q40.41,73,44.08,70Z"/><path d="M146.06,73.87H175V87.05H128.85V.86h17.22Z"/><path d="M447.62,8.3q10.62,8.3,14,22.59H443.59a23.66,23.66,0,0,0-8.73-11,24.68,24.68,0,0,0-14.22-4,22.48,22.48,0,0,0-20.88,13.19A34,34,0,0,0,396.71,44a33.72,33.72,0,0,0,3.05,14.77,22.48,22.48,0,0,0,20.88,13.19,24.68,24.68,0,0,0,14.22-4,23.66,23.66,0,0,0,8.73-11h18.07q-3.42,14.28-14,22.59t-26.74,8.3a42.22,42.22,0,0,1-21.79-5.56,37.81,37.81,0,0,1-14.65-15.57A48.62,48.62,0,0,1,379.25,44a48.89,48.89,0,0,1,5.19-22.83A38,38,0,0,1,399,5.55,42.15,42.15,0,0,1,420.88,0Q437,0,447.62,8.3Z"/><path d="M551.19,43.22,587.7,87.05H566.82L535,47.62V87.05H517.74V.86H535v38.7l32-38.7H587.7Z"/><path d="M704.9.86l-29.18,56V87.05H658.38V56.9l-29.3-56h19.78l18.31,37.73L685.48.86Z"/><path d="M307.59,16V72.17H251.38V16h56.21m15-15H236.38V87.17h86.21V1Z"/></svg>