<svg id="Layer_1" data-name="Layer 1" xmlns="http://www.w3.org/2000/svg" viewBox="0 0 343 434.11"><title>logo4</title><path d="M47.12,408.63a14.24,14.24,0,0,1,3,9q0,7.59-5,11.75t-14.43,4.16H1.81V375.15H30q8.82,0,13.81,3.88t5,11.21a13.76,13.76,0,0,1-2.72,8.7,12.5,12.5,0,0,1-7.17,4.58A14.18,14.18,0,0,1,47.12,408.63ZM18.05,398.49h8.16q6.1,0,6.1-5.11,0-5.27-6.18-5.28H18.05Zm15.5,16.74q0-5.44-6.35-5.44H18.05V420.5h9.15Q33.55,420.5,33.55,415.22Z"/><path d="M74.94,421.24H93.16v12.28H58.7V375.15H74.94Z"/><path d="M142.51,378.08a28,28,0,0,1,10.72,10.68,32.16,32.16,0,0,1,0,30.83,28.26,28.26,0,0,1-10.76,10.68,31.2,31.2,0,0,1-30,0,28.17,28.17,0,0,1-10.8-10.68,32,32,0,0,1,0-30.83,28.17,28.17,0,0,1,10.8-10.68,31.35,31.35,0,0,1,30.05,0Zm-24.78,15.17q-3.55,4-3.55,10.93,0,6.76,3.55,10.8t9.73,4a12.17,12.17,0,0,0,9.65-4q3.54-4,3.54-10.8,0-6.93-3.5-10.93t-9.69-4Q121.28,389.25,117.73,393.25Z"/><path d="M204.84,377.34a24.65,24.65,0,0,1,9.61,7.83,29.19,29.19,0,0,1,5,11.75H202.41a11.36,11.36,0,0,0-4.37-5.4,12.24,12.24,0,0,0-6.84-1.94,10.68,10.68,0,0,0-8.66,4q-3.3,4-3.3,10.68t3.3,10.72a10.63,10.63,0,0,0,8.66,4,12.05,12.05,0,0,0,6.84-2,11.59,11.59,0,0,0,4.37-5.44h17.07a26.94,26.94,0,0,1-9.36,16.28q-7.38,6.06-18.68,6.06a29.63,29.63,0,0,1-15.13-3.75,25.38,25.38,0,0,1-10-10.51,35.67,35.67,0,0,1,0-30.83,25.39,25.39,0,0,1,10-10.51,29.63,29.63,0,0,1,15.13-3.75A31.25,31.25,0,0,1,204.84,377.34Z"/><path d="M259.39,403.68,282,433.53H262.44l-18.39-25.81v25.81H227.81V375.15h16.24v25.23l18.55-25.23H282Z"/><path d="M343,375.15,322.39,415v18.55H306.23V415l-20.61-39.82h18.55l10.31,22.26,10.22-22.26Z"/><path d="M318,24V318H24V24H318M342,0H0V342H342V0Z"/><polygon points="234 15 210 15 210 333 234 333 234 15 234 15"/><polygon points="327 108 9 108 9 132 327 132 327 108 327 108"/></svg>