<svg id="Layer_1" data-name="Layer 1" xmlns="http://www.w3.org/2000/svg" viewBox="0 0 476.9 378.43"><title>Logo1</title><path d="M335.42,17.44V211.38H141.48V17.44H335.42M352.86,0H124V228.83H352.86V0Z"/><polygon points="209.52 9.05 192.08 9.05 192.08 228.09 209.52 228.09 209.52 9.05 209.52 9.05"/><polygon points="342.06 143.34 124.77 143.34 124.77 160.78 342.06 160.78 342.06 143.34 342.06 143.34"/><path d="M60.62,340.51a21,21,0,0,1,4.7,13.61q0,10.87-7.26,17.15T37,377.57H0v-86.2H36.26q13.06,0,20.09,5.74t7,16.12q0,8.06-4.21,13.19a19.57,19.57,0,0,1-11,6.71A20.93,20.93,0,0,1,60.62,340.51Zm-43.4-13H32.72q6.47,0,9.83-2.87t3.36-8.24q0-5.37-3.3-8.3t-10.13-2.93H17.22Zm26.86,33q3.66-3,3.66-8.73T44,343q-3.73-3.11-10.56-3.11H17.22v23.69H33.58Q40.41,363.53,44.08,360.54Z"/><path d="M97.19,364.38h28.94v13.19H80v-86.2H97.19Z"/><path d="M198.83,295.77a40.77,40.77,0,0,1,15.51,15.69,48.63,48.63,0,0,1,0,45.6,40.61,40.61,0,0,1-15.51,15.75,45.56,45.56,0,0,1-43.83,0,40.6,40.6,0,0,1-15.51-15.75,48.63,48.63,0,0,1,0-45.6A40.75,40.75,0,0,1,155,295.77a45.57,45.57,0,0,1,43.83,0ZM163.6,309.44a23.39,23.39,0,0,0-9,9.83,36.19,36.19,0,0,0,0,29.91,23.36,23.36,0,0,0,9,9.83,27.61,27.61,0,0,0,26.62,0,23.37,23.37,0,0,0,9-9.83,36.18,36.18,0,0,0,0-29.91,23.39,23.39,0,0,0-9-9.83,27.61,27.61,0,0,0-26.62,0Z"/><path d="M298.76,298.82q10.62,8.3,14,22.59H294.73a23.66,23.66,0,0,0-8.73-11,24.68,24.68,0,0,0-14.22-4,22.48,22.48,0,0,0-20.88,13.19,37.57,37.57,0,0,0,0,29.67,22.48,22.48,0,0,0,20.88,13.19,24.68,24.68,0,0,0,14.22-4,23.66,23.66,0,0,0,8.73-11H312.8q-3.42,14.28-14,22.59T272,378.3a42.22,42.22,0,0,1-21.79-5.56,37.81,37.81,0,0,1-14.65-15.57,52.56,52.56,0,0,1,0-45.54,38,38,0,0,1,14.59-15.57A42.15,42.15,0,0,1,272,290.52Q288.14,290.52,298.76,298.82Z"/><path d="M359.32,333.74l36.51,43.83H374.95l-31.87-39.44v39.44H325.87v-86.2h17.22v38.7l32-38.7h20.76Z"/><path d="M476.9,291.37l-29.18,56v30.16H430.38V347.41l-29.3-56h19.78l18.31,37.73,18.31-37.73Z"/></svg>