<?xml version="1.0" encoding="UTF-8"?>
<svg width="32px" height="32px" viewBox="0 0 32 32" version="1.1" xmlns="http://www.w3.org/2000/svg" xmlns:xlink="http://www.w3.org/1999/xlink">
    <!-- Generator: Sketch 48.2 (47327) - http://www.bohemiancoding.com/sketch -->
    <title>noun_595304_cc (2) copy 3</title>
    <desc>Created with Sketch.</desc>
    <defs></defs>
    <g id="Desktop-Copy-3" stroke="none" stroke-width="1" fill="none" fill-rule="evenodd" transform="translate(-331.000000, -2212.000000)" opacity="0.7">
        <g id="noun_595304_cc-(2)-copy-3" transform="translate(331.000000, 2212.000000)" fill="#BEBEBE" fill-rule="nonzero">
            <g id="Group">
                <path d="M16,32 C7.178,32 0,24.822 0,16 C0,7.178 7.178,0 16,0 C24.822,0 32,7.178 32,16 C32,24.822 24.822,32 16,32 Z M16,2 C8.28,2 2,8.28 2,16 C2,23.72 8.28,30 16,30 C23.72,30 30,23.72 30,16 C30,8.28 23.72,2 16,2 Z" id="Shape"></path>
                <path d="M17,23 C16.744,23 16.488,22.902 16.293,22.707 C15.902,22.316 15.902,21.684 16.293,21.293 L21.586,16 L16.293,10.707 C15.902,10.316 15.902,9.684 16.293,9.293 C16.684,8.902 17.316,8.902 17.707,9.293 L23.707,15.293 C24.098,15.684 24.098,16.316 23.707,16.707 L17.707,22.707 C17.512,22.902 17.256,23 17,23 Z" id="Shape"></path>
                <path d="M23,17 L9,17 C8.448,17 8,16.552 8,16 C8,15.448 8.448,15 9,15 L23,15 C23.553,15 24,15.448 24,16 C24,16.552 23.553,17 23,17 Z" id="Shape"></path>
            </g>
        </g>
    </g>
</svg>