<?xml version="1.0" encoding="UTF-8"?>
<svg width="40px" height="41px" viewBox="0 0 40 41" version="1.1" xmlns="http://www.w3.org/2000/svg" xmlns:xlink="http://www.w3.org/1999/xlink">
    <!-- Generator: Sketch 48.2 (47327) - http://www.bohemiancoding.com/sketch -->
    <title>004-linkedin</title>
    <desc>Created with Sketch.</desc>
    <defs></defs>
    <g id="Desktop-Copy-3" stroke="none" stroke-width="1" fill="none" fill-rule="evenodd" transform="translate(-269.000000, -3709.000000)">
        <g id="004-linkedin" transform="translate(269.000000, 3709.000000)" fill-rule="nonzero">
            <circle id="Oval" fill="#BEBEBE" cx="19.8576991" cy="20.2113274" r="19.8576991"></circle>
            <path d="M31.7224779,21.8092035 L31.7224779,29.9961062 L26.9759292,29.9961062 L26.9759292,22.3578761 C26.9759292,20.44 26.2906195,19.1302655 24.5720354,19.1302655 C23.260531,19.1302655 22.4814159,20.0120354 22.1373451,20.8658407 C22.0123894,21.1709735 21.980177,21.5946903 21.980177,22.0226549 L21.980177,29.9957522 L17.2332743,29.9957522 C17.2332743,29.9957522 17.2969912,17.059115 17.2332743,15.72 L21.980531,15.72 L21.980531,17.7430088 C21.9709735,17.7589381 21.9575221,17.7745133 21.9490265,17.7897345 L21.980531,17.7897345 L21.980531,17.7430088 C22.6113274,16.7723894 23.7362832,15.3847788 26.2584071,15.3847788 C29.3812389,15.3847788 31.7224779,17.4251327 31.7224779,21.8092035 Z M12.2676106,8.83858407 C10.6438938,8.83858407 9.58159292,9.90442478 9.58159292,11.3047788 C9.58159292,12.6753982 10.6130973,13.7720354 12.2053097,13.7720354 L12.2361062,13.7720354 C13.8916814,13.7720354 14.9210619,12.6753982 14.9210619,11.3047788 C14.8895575,9.90442478 13.8916814,8.83858407 12.2676106,8.83858407 Z M9.86371681,29.9961062 L14.6088496,29.9961062 L14.6088496,15.72 L9.86371681,15.72 L9.86371681,29.9961062 Z" id="Shape" fill="#FFFFFF"></path>
        </g>
    </g>
</svg>