<?xml version="1.0" encoding="UTF-8"?>
<svg width="40px" height="40px" viewBox="0 0 40 40" version="1.1" xmlns="http://www.w3.org/2000/svg" xmlns:xlink="http://www.w3.org/1999/xlink">
    <!-- Generator: Sketch 49.3 (51167) - http://www.bohemiancoding.com/sketch -->
    <title>Combined Shape</title>
    <desc>Created with Sketch.</desc>
    <defs></defs>
    <g id="Page-1" stroke="none" stroke-width="1" fill="none" fill-rule="evenodd">
        <g id="Desktop-Copy-3" transform="translate(-157.000000, -3710.000000)" fill="#BEBEBE" fill-rule="nonzero">
            <path d="M176.857699,3749.7154 C165.890595,3749.7154 157,3740.8248 157,3729.8577 C157,3718.89059 165.890595,3710 176.857699,3710 C187.824804,3710 196.715398,3718.89059 196.715398,3729.8577 C196.715398,3740.8248 187.824804,3749.7154 176.857699,3749.7154 Z M181.849912,3730.63504 L182.318938,3726.07717 L178.306903,3726.07717 L178.306903,3723.39221 C178.306903,3722.38513 178.972389,3722.14867 179.445664,3722.14867 L182.330973,3722.14867 L182.330973,3717.72035 L178.354336,3717.70372 C173.940885,3717.70372 172.938053,3721.00956 172.938053,3723.12071 L172.938053,3726.07292 L170.384779,3726.07292 L170.384779,3730.63504 L172.938053,3730.63504 L172.938053,3743.61628 L178.306549,3743.61628 L178.306549,3730.63504 L181.849912,3730.63504 Z" id="Combined-Shape"></path>
        </g>
    </g>
</svg>