<?xml version="1.0" encoding="UTF-8"?>
<svg width="40px" height="40px" viewBox="0 0 40 40" version="1.1" xmlns="http://www.w3.org/2000/svg" xmlns:xlink="http://www.w3.org/1999/xlink">
    <!-- Generator: Sketch 49.3 (51167) - http://www.bohemiancoding.com/sketch -->
    <title>Combined Shape</title>
    <desc>Created with Sketch.</desc>
    <defs></defs>
    <g id="Page-1" stroke="none" stroke-width="1" fill="none" fill-rule="evenodd">
        <g id="Desktop-Copy-4" transform="translate(-1089.000000, -2589.000000)" fill="#BEBEBE" fill-rule="nonzero">
            <path d="M1109,2629 C1097.95431,2629 1089,2620.04569 1089,2609 C1089,2597.95431 1097.95431,2589 1109,2589 C1120.04569,2589 1129,2597.95431 1129,2609 C1129,2620.04569 1120.04569,2629 1109,2629 Z M1120.9498,2610.60933 C1120.9498,2606.19384 1118.59179,2604.13886 1115.44658,2604.13886 C1112.90638,2604.13886 1111.77336,2605.53642 1111.13804,2606.51399 L1111.13804,2606.56105 L1111.10631,2606.56105 C1111.11487,2606.54572 1111.12842,2606.53004 1111.13804,2606.51399 L1111.13804,2604.47649 L1106.35677,2604.47649 C1106.42094,2605.8252 1106.35677,2618.85454 1106.35677,2618.85454 L1111.13769,2618.85454 L1111.13769,2610.82431 C1111.13769,2610.39328 1111.17013,2609.96652 1111.29598,2609.6592 C1111.64252,2608.79928 1112.42722,2607.91119 1113.74812,2607.91119 C1115.47902,2607.91119 1116.16924,2609.23031 1116.16924,2611.16193 L1116.16924,2618.8549 L1120.9498,2618.8549 L1120.9498,2610.60933 Z M1101.35552,2597.54576 C1099.72017,2597.54576 1098.65025,2598.61924 1098.65025,2600.02963 C1098.65025,2601.41007 1099.68915,2602.51456 1101.29277,2602.51456 L1101.32379,2602.51456 C1102.99123,2602.51456 1104.02799,2601.41007 1104.02799,2600.02963 C1103.99626,2598.61924 1102.99123,2597.54576 1101.35552,2597.54576 Z M1098.9344,2618.8549 L1103.71354,2618.8549 L1103.71354,2604.47649 L1098.9344,2604.47649 L1098.9344,2618.8549 Z" id="Combined-Shape"></path>
        </g>
    </g>
</svg>