<?xml version="1.0" encoding="UTF-8"?>
<svg width="67px" height="58px" viewBox="0 0 67 58" version="1.1" xmlns="http://www.w3.org/2000/svg" xmlns:xlink="http://www.w3.org/1999/xlink">
    <!-- Generator: Sketch 49.3 (51167) - http://www.bohemiancoding.com/sketch -->
    <title>”</title>
    <desc>Created with Sketch.</desc>
    <defs></defs>
    <g id="Page-1" stroke="none" stroke-width="1" fill="none" fill-rule="evenodd">
        <g id="Desktop-Copy-3" transform="translate(-502.000000, -2496.000000)" fill="#DFDFDF">
            <path d="M503.953353,2496 L531.104956,2496 L531.104956,2515.13805 C531.104956,2526.72509 529.119067,2535.35014 525.14723,2541.01347 C521.175393,2546.6768 515.217727,2551.0056 507.274052,2554 L502,2542.86869 C512.027261,2539.6139 517.040816,2532.90914 517.040816,2522.75421 L503.953353,2522.75421 L503.953353,2496 Z M542.239067,2496 L569,2496 L569,2515.13805 C569,2527.11566 566.916445,2535.936 562.749271,2541.59933 C558.582098,2547.26265 552.722098,2551.39617 545.169096,2554 L540.090379,2542.86869 C550.247864,2539.6139 555.326531,2532.90914 555.326531,2522.75421 L542.239067,2522.75421 L542.239067,2496 Z" id="”"></path>
        </g>
    </g>
</svg>