<?xml version="1.0" encoding="UTF-8"?>
<svg width="40px" height="40px" viewBox="0 0 40 40" version="1.1" xmlns="http://www.w3.org/2000/svg" xmlns:xlink="http://www.w3.org/1999/xlink">
    <!-- Generator: Sketch 49.3 (51167) - http://www.bohemiancoding.com/sketch -->
    <title>Combined Shape</title>
    <desc>Created with Sketch.</desc>
    <defs></defs>
    <g id="Page-1" stroke="none" stroke-width="1" fill="none" fill-rule="evenodd">
        <g id="Desktop-Copy-4" transform="translate(-1033.000000, -2589.000000)" fill="#BEBEBE" fill-rule="nonzero">
            <path d="M1053,2629 C1041.95431,2629 1033,2620.04569 1033,2609 C1033,2597.95431 1041.95431,2589 1053,2589 C1064.04569,2589 1073,2597.95431 1073,2609 C1073,2620.04569 1064.04569,2629 1053,2629 Z M1065.2507,2603.37342 C1064.39363,2603.75347 1063.47167,2604.01052 1062.5048,2604.12532 C1063.492,2603.53385 1064.2496,2602.59799 1064.60719,2601.48102 C1063.68345,2602.02898 1062.65988,2602.4265 1061.57143,2602.64077 C1060.69938,2601.71204 1059.45691,2601.13163 1058.08111,2601.13163 C1055.44144,2601.13163 1053.30055,2603.27252 1053.30055,2605.91219 C1053.30055,2606.28689 1053.34297,2606.65161 1053.42497,2607.00171 C1049.45192,2606.80242 1045.92916,2604.89932 1043.57114,2602.00617 C1043.15972,2602.71208 1042.9237,2603.53385 1042.9237,2604.40982 C1042.9237,2606.06799 1043.7683,2607.53185 1045.05034,2608.38893 C1044.26707,2608.36433 1043.52943,2608.14935 1042.8852,2607.79033 C1042.88484,2607.81065 1042.88484,2607.83097 1042.88484,2607.85094 C1042.88484,2610.16724 1044.53339,2612.09922 1046.71992,2612.53809 C1046.31919,2612.6479 1045.896,2612.70601 1045.46069,2612.70601 C1045.15195,2612.70601 1044.85283,2612.67642 1044.5612,2612.62081 C1045.16942,2614.51963 1046.93454,2615.90185 1049.02695,2615.94071 C1047.39053,2617.22311 1045.32949,2617.98713 1043.08913,2617.98713 C1042.70409,2617.98713 1042.32261,2617.96467 1041.94934,2617.9201 C1044.06385,2619.27702 1046.57731,2620.06813 1049.27687,2620.06813 C1058.07006,2620.06813 1062.87878,2612.78374 1062.87878,2606.46586 C1062.87878,2606.25873 1062.87415,2606.0523 1062.86488,2605.84766 C1063.79967,2605.17384 1064.61004,2604.3321 1065.2507,2603.37342 Z" id="Combined-Shape"></path>
        </g>
    </g>
</svg>